Coordinates
version=1
nRows=12
nColumns=24
inDegrees=yes

Units are S.I. units (second, meters, Newtons, ...)
Angles are in degrees.

endheader
time	pelvis_tilt	pelvis_list	pelvis_rotation	pelvis_tx	pelvis_ty	pelvis_tz	hip_flexion_r	hip_adduction_r	hip_rotation_r	knee_angle_r	ankle_angle_r	subtalar_angle_r	mtp_angle_r	hip_flexion_l	hip_adduction_l	hip_rotation_l	knee_angle_l	ankle_angle_l	subtalar_angle_l	mtp_angle_l	lumbar_extension	lumbar_bending	lumbar_rotation
      0.30400000	     -2.89779703	      4.03096473	     -3.54296800	     -0.87974421	      1.03859743	      0.29073712	     30.70852140	     -1.58549464	     -2.30402877	     -8.36006522	      6.37023049	      2.05562439	      8.43441589	    -10.61916736	      6.10276906	     -0.39175400	     -8.34573552	     21.19680266	      8.83100129	      0.65459511	     -9.02854122	     -4.84155490	     -1.60807646
      0.30816667	     -2.84058818	      3.98579466	     -3.45352159	     -0.87355214	      1.03769517	      0.29095633	     30.66565722	     -1.49889686	     -2.11084049	     -8.72559841	      6.33418261	      1.90069019	      8.45249615	    -10.81730493	      6.03652806	     -0.37096973	     -8.85874131	     21.41065110	      8.95186965	      0.67708656	     -9.05969362	     -4.67565997	     -1.82144061
      0.31233333	     -2.81879311	      3.93423242	     -3.37568144	     -0.86731438	      1.03674095	      0.29122136	     30.65773771	     -1.39370543	     -1.87095202	     -9.14584658	      6.24257674	      1.65393899	      8.48405294	    -10.93815947	      5.95377242	     -0.45090586	     -9.46126472	     21.66142403	      9.19965409	      0.72559089	     -9.04357433	     -4.53006867	     -1.80650331
      0.31650000	     -2.77899516	      3.88323403	     -3.29275348	     -0.86105052	      1.03584843	      0.29146903	     30.62989153	     -1.29594676	     -1.64077306	     -9.62211826	      6.12376317	      1.40658764	      8.52495580	    -11.06730763	      5.87092865	     -0.50986515	    -10.08626855	     21.87614329	      9.41688259	      0.79555695	     -9.04933235	     -4.37232166	     -1.82743939
      0.32066667	     -2.75468539	      3.82508263	     -3.20724521	     -0.85473373	      1.03495294	      0.29172872	     30.61111293	     -1.19014168	     -1.40646560	    -10.13674545	      5.94530932	      1.10086205	      8.57256927	    -11.16037727	      5.77350144	     -0.59677924	    -10.76573263	     22.07739489	      9.66135426	      0.88683728	     -9.02919272	     -4.20879383	     -1.84113212
      0.32483333	     -2.73176565	      3.76149513	     -3.11675783	     -0.84840430	      1.03409864	      0.29199115	     30.58625489	     -1.08065418	     -1.16190155	    -10.67986014	      5.70538735	      0.73806927	      8.62565559	    -11.22193399	      5.66287226	     -0.71022904	    -11.50333365	     22.26312325	      9.94696995	      1.00345321	     -9.00693059	     -4.03496646	     -1.85459336
      0.32900000	     -2.69096433	      3.69498295	     -3.02408686	     -0.84206195	      1.03330575	      0.29225911	     30.53652394	     -0.97124018	     -0.91813703	    -11.24698258	      5.41778383	      0.34708112	      8.68996484	    -11.27894451	      5.54218104	     -0.85157730	    -12.29006671	     22.42783312	     10.27677279	      1.15972010	     -9.01071263	     -3.85692148	     -1.87278405
      0.33316667	     -2.66825160	      3.62734648	     -2.92892480	     -0.83569011	      1.03250565	      0.29253359	     30.50541472	     -0.86129749	     -0.68095279	    -11.84434713	      5.08002943	     -0.07380660	      8.76119475	    -11.29174978	      5.41280176	     -1.00768185	    -13.13768559	     22.56815707	     10.61554175	      1.35594865	     -8.98409384	     -3.67608350	     -1.88409941
      0.33733333	     -2.61128810	      3.54098674	     -2.82031517	     -0.82930669	      1.03181555	      0.29278707	     30.43221698	     -0.74749122	     -0.50831417	    -12.46297480	      4.72146511	     -0.45754943	      8.94285053	    -11.30594348	      5.24757390	     -1.24611827	    -14.05576370	     22.70420419	     11.10961813	      1.87064761	     -9.01075733	     -3.47425149	     -1.85545202
      0.34150000	     -2.60423700	      3.48048583	     -2.72641508	     -0.82291932	      1.03108325	      0.29310354	     30.40895835	     -0.63970793	     -0.23495277	    -13.08120586	      4.25097639	     -0.99272330	      9.02867293	    -11.25213582	      5.11150994	     -1.41993551	    -14.99880633	     22.77297804	     11.44348125	      2.19515259	     -8.96114451	     -3.30467903	     -1.90162197
      0.34566667	     -2.63983795	      3.41415438	     -2.61966187	     -0.81648251	      1.03032282	      0.29338806	     30.44024189	     -0.53718749	     -0.03900596	    -13.74256170	      3.79346312	     -1.48433223	      9.07341280	    -11.12514797	      4.95900222	     -1.60125041	    -15.99906565	     22.77268975	     11.78588525	      2.43454747	     -8.84225339	     -3.11201466	     -1.90903573
      0.34983333	     -2.60487542	      3.31076206	     -2.50823481	     -0.81005124	      1.02974885	      0.29368219	     30.37272549	     -0.40632456	      0.14624719	    -14.37455021	      3.27923468	     -2.01480392	      9.11549434	    -11.03751774	      4.74987495	     -1.86440208	    -17.07696278	     22.78558266	     12.27469879	      2.73088531	     -8.83016961	     -2.88334729	     -1.91284407
